<svg width="171" height="35" viewBox="0 0 171 35" fill="none" xmlns="http://www.w3.org/2000/svg">
<path d="M17.8386 23.6869C18.8975 23.6869 19.8328 23.4877 20.6445 23.0895C21.4563 22.6912 22.1445 22.1436 22.7093 21.4466L28.1622 26.3253C26.9269 27.6197 25.4269 28.6319 23.6622 29.3621C21.9328 30.0922 19.9916 30.4573 17.8386 30.4573C15.8621 30.4573 14.0445 30.142 12.3856 29.5114C10.7268 28.8808 9.27973 28.0013 8.04443 26.8729C6.84442 25.7113 5.89147 24.3506 5.18558 22.7908C4.51498 21.1977 4.17969 19.4719 4.17969 17.6134C4.17969 15.7549 4.51498 14.0457 5.18558 12.4858C5.89147 10.8928 6.84442 9.53205 8.04443 8.40365C9.27973 7.24206 10.7268 6.34597 12.3856 5.7154C14.0445 5.08482 15.8621 4.76953 17.8386 4.76953C19.9563 4.76953 21.8798 5.1346 23.6093 5.86474C25.3387 6.5617 26.8211 7.54075 28.0564 8.80191L22.6563 13.7304C22.1269 13.0334 21.4387 12.4858 20.5916 12.0875C19.7798 11.6893 18.8622 11.4902 17.8386 11.4902C16.0386 11.4902 14.5739 12.0544 13.4445 13.1828C12.3151 14.3112 11.7503 15.788 11.7503 17.6134C11.7503 19.4388 12.3151 20.9156 13.4445 22.044C14.5739 23.1392 16.0386 23.6869 17.8386 23.6869Z" fill="url(#paint0_linear_5015_7015)"/>
<path d="M42.5406 23.7366C44.2671 23.7366 45.672 23.1724 46.7553 22.044C47.8724 20.9156 48.431 19.4388 48.431 17.6134C48.431 15.788 47.8724 14.3278 46.7553 13.2325C45.672 12.1041 44.2671 11.5399 42.5406 11.5399C40.8141 11.5399 39.4092 12.1041 38.3259 13.2325C37.2426 14.3278 36.7009 15.788 36.7009 17.6134C36.7009 19.4388 37.2426 20.9156 38.3259 22.044C39.4092 23.1724 40.8141 23.7366 42.5406 23.7366ZM42.5406 4.76953C44.4364 4.76953 46.1798 5.08482 47.7709 5.7154C49.3958 6.34597 50.7838 7.24206 51.9348 8.40365C53.1197 9.53205 54.0337 10.8928 54.6769 12.4858C55.354 14.0457 55.6925 15.7549 55.6925 17.6134C55.6925 19.4719 55.354 21.1977 54.6769 22.7908C54.0337 24.3506 53.1197 25.7113 51.9348 26.8729C50.7838 28.0013 49.3958 28.8808 47.7709 29.5114C46.1798 30.142 44.4364 30.4573 42.5406 30.4573C40.6448 30.4573 38.9014 30.142 37.3103 29.5114C35.7192 28.8808 34.3312 28.0013 33.1463 26.8729C31.9953 25.7113 31.0813 24.3506 30.4042 22.7908C29.761 21.1977 29.4394 19.4719 29.4394 17.6134C29.4394 15.7549 29.761 14.0457 30.4042 12.4858C31.0813 10.8928 31.9953 9.53205 33.1463 8.40365C34.3312 7.24206 35.7192 6.34597 37.3103 5.7154C38.9014 5.08482 40.6448 4.76953 42.5406 4.76953Z" fill="url(#paint1_linear_5015_7015)"/>
<path d="M68.8832 24.6327C70.1269 24.6327 71.0251 24.4834 71.5778 24.1847C72.1305 23.8528 72.4069 23.4379 72.4069 22.9401C72.4069 22.3759 72.0615 21.8947 71.3705 21.4964C70.6796 21.065 69.4187 20.6667 67.5878 20.3017C64.755 19.7374 62.5786 18.775 61.0586 17.4143C59.5732 16.0535 58.8304 14.3112 58.8304 12.1871C58.8304 11.1583 59.055 10.1958 59.5041 9.29973C59.9532 8.40365 60.6095 7.62372 61.4732 6.95996C62.3368 6.263 63.4077 5.73199 64.6859 5.36692C65.9641 4.96866 67.4151 4.76953 69.0387 4.76953C71.0769 4.76953 72.9942 5.01844 74.7906 5.51627C76.6215 6.01409 78.2451 6.66126 79.6615 7.45778L75.7751 12.7347C74.8769 12.1373 73.8406 11.6395 72.666 11.2412C71.526 10.843 70.3514 10.6439 69.1423 10.6439C68.1751 10.6439 67.4496 10.7932 66.966 11.0919C66.4823 11.3574 66.2405 11.7225 66.2405 12.1871C66.2405 12.6517 66.5169 13.0666 67.0696 13.4317C67.6223 13.7636 68.6932 14.112 70.2823 14.4771C72.0787 14.8754 73.5815 15.3566 74.7906 15.9208C76.0342 16.4518 77.0188 17.0658 77.7442 17.7627C78.5042 18.4265 79.0397 19.1732 79.3506 20.003C79.6615 20.8327 79.817 21.7453 79.817 22.741C79.817 25.031 78.8497 26.8895 76.9151 28.3166C75.0151 29.7437 72.3551 30.4573 68.9351 30.4573C67.9678 30.4573 66.966 30.3743 65.9296 30.2084C64.9278 30.0756 63.9432 29.8765 62.9759 29.611C62.0432 29.3123 61.145 28.9804 60.2813 28.6153C59.4523 28.2502 58.7268 27.8354 58.105 27.3708L61.9914 22.0938C62.855 22.824 63.8914 23.4379 65.1005 23.9358C66.3096 24.4004 67.5705 24.6327 68.8832 24.6327Z" fill="url(#paint2_linear_5015_7015)"/>
<path d="M121.196 10.4607C120.824 9.3581 120.318 8.40839 119.676 7.61154C118.185 5.71687 116.017 4.76954 113.17 4.76954C111.442 4.76954 109.9 5.15179 108.545 5.91631C107.189 6.64758 106.071 7.67802 105.19 9.00761H105.088C103.631 6.18223 101.174 4.76954 97.7179 4.76954C96.1591 4.76954 94.7697 5.06869 93.5498 5.66701C92.3299 6.26533 91.2794 7.11294 90.3983 8.20986H90.2967L90.0934 5.36785H83.7904V29.8988H91.0591V16.3869C91.0591 14.8911 91.4149 13.6944 92.1266 12.797C92.8382 11.8995 93.8548 11.4507 95.1764 11.4507C96.4641 11.4507 97.4637 11.8829 98.1753 12.7471C98.887 13.5781 99.2428 14.7913 99.2428 16.3869V29.8988H106.511V16.3869C106.511 14.8911 106.85 13.6944 107.528 12.797C108.24 11.8995 109.273 11.4507 110.629 11.4507C111.916 11.4507 112.916 11.8829 113.628 12.7471C114.339 13.5781 114.695 14.7913 114.695 16.3869V29.8988H121.964V26.0838C121.533 25.4163 121.148 24.7125 120.808 23.9723C119.97 22.0082 119.551 19.8804 119.551 17.5889C119.551 15.2974 119.97 13.1901 120.808 11.2669C120.931 10.9926 121.061 10.7238 121.196 10.4607Z" fill="url(#paint3_linear_5015_7015)"/>
<path d="M136.484 23.7366C138.211 23.7366 139.615 23.1724 140.699 22.044C141.816 20.9156 142.375 19.4388 142.375 17.6134C142.375 15.788 141.816 14.3278 140.699 13.2325C139.615 12.1041 138.211 11.5399 136.484 11.5399C134.758 11.5399 133.353 12.1041 132.269 13.2325C131.186 14.3278 130.644 15.788 130.644 17.6134C130.644 19.4388 131.186 20.9156 132.269 22.044C133.353 23.1724 134.758 23.7366 136.484 23.7366ZM136.484 4.76954C138.38 4.76954 140.123 5.08482 141.714 5.7154C143.339 6.34598 144.727 7.24206 145.878 8.40365C147.063 9.53205 147.977 10.8928 148.62 12.4858C149.297 14.0457 149.636 15.7549 149.636 17.6134C149.636 19.4719 149.297 21.1977 148.62 22.7908C147.977 24.3506 147.063 25.7113 145.878 26.8729C144.727 28.0013 143.339 28.8808 141.714 29.5114C140.123 30.142 138.38 30.4573 136.484 30.4573C134.588 30.4573 132.845 30.142 131.254 29.5114C129.663 28.8808 128.275 28.0013 127.09 26.8729C125.939 25.7113 125.025 24.3506 124.348 22.7908C123.705 21.1977 123.383 19.4719 123.383 17.6134C123.383 15.7549 123.705 14.0457 124.348 12.4858C125.025 10.8928 125.939 9.53205 127.09 8.40365C128.275 7.24206 129.663 6.34598 131.254 5.7154C132.845 5.08482 134.588 4.76954 136.484 4.76954Z" fill="url(#paint4_linear_5015_7015)"/>
<path d="M149.621 27.9339C150.028 28.1776 150.469 28.4048 150.945 28.6155C151.804 28.9805 152.697 29.3124 153.624 29.6111C154.586 29.8765 155.565 30.0757 156.561 30.2084C157.592 30.3743 158.588 30.4573 159.549 30.4573C162.95 30.4573 165.595 29.7438 167.484 28.3168C169.408 26.8897 170.369 25.0313 170.369 22.7414C170.369 21.7458 170.215 20.8332 169.906 20.0035C169.597 19.1739 169.064 18.4272 168.308 17.7634C167.587 17.0665 166.608 16.4525 165.372 15.9216C164.169 15.3574 162.675 14.8762 160.889 14.4779C159.309 14.1129 158.244 13.7644 157.695 13.4326C157.145 13.0675 156.87 12.6527 156.87 12.1881C156.87 11.7234 157.111 11.3584 157.592 11.0929C158.072 10.7942 158.794 10.6449 159.756 10.6449C160.958 10.6449 162.126 10.844 163.259 11.2422C164.427 11.6405 165.457 12.1383 166.351 12.7356L170.215 7.45897C168.807 6.66249 167.192 6.01535 165.372 5.51755C163.585 5.01975 161.679 4.77085 159.652 4.77085C158.038 4.77085 156.595 4.96997 155.324 5.36821C154.054 5.73326 152.989 6.26425 152.13 6.96117C151.526 7.42837 151.023 7.95312 150.623 8.53542C151.218 9.3743 151.726 10.2848 152.145 11.2669C153.027 13.1901 153.468 15.2974 153.468 17.5889C153.468 17.9421 153.457 18.2915 153.436 18.6369C154.736 19.37 156.327 19.9251 158.21 20.3022C160.03 20.6673 161.284 21.0655 161.971 21.4969C162.658 21.8952 163.002 22.3764 163.002 22.9405C163.002 23.4383 162.727 23.8532 162.177 24.185C161.628 24.4837 160.734 24.6331 159.498 24.6331C158.193 24.6331 156.939 24.4007 155.737 23.9361C154.606 23.4679 153.627 22.897 152.8 22.2233C152.619 22.8201 152.4 23.4031 152.145 23.9723C151.507 25.4348 150.666 26.7553 149.621 27.9339Z" fill="url(#paint5_linear_5015_7015)"/>
<path d="M17.8386 23.6869C18.8975 23.6869 19.8328 23.4877 20.6445 23.0895C21.4563 22.6912 22.1445 22.1436 22.7093 21.4466L28.1622 26.3253C26.9269 27.6197 25.4269 28.6319 23.6622 29.3621C21.9328 30.0922 19.9916 30.4573 17.8386 30.4573C15.8621 30.4573 14.0445 30.142 12.3856 29.5114C10.7268 28.8808 9.27973 28.0013 8.04443 26.8729C6.84442 25.7113 5.89147 24.3506 5.18558 22.7908C4.51498 21.1977 4.17969 19.4719 4.17969 17.6134C4.17969 15.7549 4.51498 14.0457 5.18558 12.4858C5.89147 10.8928 6.84442 9.53205 8.04443 8.40365C9.27973 7.24206 10.7268 6.34597 12.3856 5.7154C14.0445 5.08482 15.8621 4.76953 17.8386 4.76953C19.9563 4.76953 21.8798 5.1346 23.6093 5.86474C25.3387 6.5617 26.8211 7.54075 28.0564 8.80191L22.6563 13.7304C22.1269 13.0334 21.4387 12.4858 20.5916 12.0875C19.7798 11.6893 18.8622 11.4902 17.8386 11.4902C16.0386 11.4902 14.5739 12.0544 13.4445 13.1828C12.3151 14.3112 11.7503 15.788 11.7503 17.6134C11.7503 19.4388 12.3151 20.9156 13.4445 22.044C14.5739 23.1392 16.0386 23.6869 17.8386 23.6869Z" fill="url(#paint6_linear_5015_7015)"/>
<path d="M17.8386 23.6869C18.8975 23.6869 19.8328 23.4877 20.6445 23.0895C21.4563 22.6912 22.1445 22.1436 22.7093 21.4466L28.1622 26.3253C26.9269 27.6197 25.4269 28.6319 23.6622 29.3621C21.9328 30.0922 19.9916 30.4573 17.8386 30.4573C15.8621 30.4573 14.0445 30.142 12.3856 29.5114C10.7268 28.8808 9.27973 28.0013 8.04443 26.8729C6.84442 25.7113 5.89147 24.3506 5.18558 22.7908C4.51498 21.1977 4.17969 19.4719 4.17969 17.6134C4.17969 15.7549 4.51498 14.0457 5.18558 12.4858C5.89147 10.8928 6.84442 9.53205 8.04443 8.40365C9.27973 7.24206 10.7268 6.34597 12.3856 5.7154C14.0445 5.08482 15.8621 4.76953 17.8386 4.76953C19.9563 4.76953 21.8798 5.1346 23.6093 5.86474C25.3387 6.5617 26.8211 7.54075 28.0564 8.80191L22.6563 13.7304C22.1269 13.0334 21.4387 12.4858 20.5916 12.0875C19.7798 11.6893 18.8622 11.4902 17.8386 11.4902C16.0386 11.4902 14.5739 12.0544 13.4445 13.1828C12.3151 14.3112 11.7503 15.788 11.7503 17.6134C11.7503 19.4388 12.3151 20.9156 13.4445 22.044C14.5739 23.1392 16.0386 23.6869 17.8386 23.6869Z" fill="url(#paint7_linear_5015_7015)"/>
<path d="M17.0984 0.756183C15.721 0.765713 14.3543 0.944127 13.0285 1.28437M24.6301 32.6106C22.3622 33.7231 19.8723 34.3111 17.3454 34.3308C14.8186 34.3505 12.3198 33.8014 10.0348 32.7243C7.74983 31.6472 5.73738 30.0699 4.14704 28.1094C2.5567 26.149 1.42937 23.856 0.848847 21.4007C0.268323 18.9454 0.249529 16.3911 0.793863 13.9276C1.3382 11.4641 2.43166 9.15467 3.99298 7.17106C5.5543 5.18746 7.54333 3.58065 9.81223 2.47006C10.0757 2.34109 10.3422 2.21919 10.6114 2.10444M13.0285 1.28437C12.8493 0.796863 12.3803 0.449035 11.8298 0.449042C11.1249 0.44905 10.5534 1.01961 10.5533 1.72342C10.5533 1.85614 10.5737 1.98413 10.6114 2.10444M13.0285 1.28437C13.0788 1.42124 13.1063 1.56911 13.1063 1.72339C13.1063 2.4272 12.5348 2.99776 11.8298 2.99777C11.2578 2.99778 10.7736 2.62213 10.6114 2.10444" stroke="#65BAFA" stroke-width="0.709606" stroke-linecap="round"/>
<defs>
<linearGradient id="paint0_linear_5015_7015" x1="158.149" y1="17.536" x2="4.20705" y2="17.536" gradientUnits="userSpaceOnUse">
<stop stop-color="#9D37F2"/>
<stop offset="1" stop-color="#65BAFA"/>
</linearGradient>
<linearGradient id="paint1_linear_5015_7015" x1="158.149" y1="17.536" x2="4.20705" y2="17.536" gradientUnits="userSpaceOnUse">
<stop stop-color="#9D37F2"/>
<stop offset="1" stop-color="#65BAFA"/>
</linearGradient>
<linearGradient id="paint2_linear_5015_7015" x1="158.149" y1="17.536" x2="4.20705" y2="17.536" gradientUnits="userSpaceOnUse">
<stop stop-color="#9D37F2"/>
<stop offset="1" stop-color="#65BAFA"/>
</linearGradient>
<linearGradient id="paint3_linear_5015_7015" x1="158.149" y1="17.536" x2="4.20705" y2="17.536" gradientUnits="userSpaceOnUse">
<stop stop-color="#9D37F2"/>
<stop offset="1" stop-color="#65BAFA"/>
</linearGradient>
<linearGradient id="paint4_linear_5015_7015" x1="158.149" y1="17.536" x2="4.20705" y2="17.536" gradientUnits="userSpaceOnUse">
<stop stop-color="#9D37F2"/>
<stop offset="1" stop-color="#65BAFA"/>
</linearGradient>
<linearGradient id="paint5_linear_5015_7015" x1="158.149" y1="17.536" x2="4.20705" y2="17.536" gradientUnits="userSpaceOnUse">
<stop stop-color="#9D37F2"/>
<stop offset="1" stop-color="#65BAFA"/>
</linearGradient>
<linearGradient id="paint6_linear_5015_7015" x1="158.149" y1="17.536" x2="4.20705" y2="17.536" gradientUnits="userSpaceOnUse">
<stop stop-color="#9D37F2"/>
<stop offset="1" stop-color="#65BAFA"/>
</linearGradient>
<linearGradient id="paint7_linear_5015_7015" x1="158.149" y1="17.536" x2="4.20705" y2="17.536" gradientUnits="userSpaceOnUse">
<stop stop-color="#9D37F2"/>
<stop offset="1" stop-color="#65BAFA"/>
</linearGradient>
</defs>
</svg>
